<?xml version="1.0" encoding="utf-8"?>
<!-- Generator: Adobe Illustrator 21.0.2, SVG Export Plug-In . SVG Version: 6.00 Build 0)  -->
<svg version="1.1" id="Layer_1" xmlns="http://www.w3.org/2000/svg" xmlns:xlink="http://www.w3.org/1999/xlink" x="0px" y="0px"
	 viewBox="0 0 100 100" style="enable-background:new 0 0 100 100;" xml:space="preserve">
<style type="text/css">
	.st0{fill:#FFFFFF;}
</style>
<path class="st0" d="M50,63L50,63c-7.2,0-13-5.8-13-13v0c0-7.2,5.8-13,13-13h0c7.2,0,13,5.8,13,13v0C63,57.2,57.2,63,50,63z"/>
<path class="st0" d="M13,63L13,63C5.8,63,0,57.2,0,50v0c0-7.2,5.8-13,13-13h0c7.2,0,13,5.8,13,13v0C26,57.2,20.2,63,13,63z"/>
<path class="st0" d="M87,63L87,63c-7.2,0-13-5.8-13-13v0c0-7.2,5.8-13,13-13h0c7.2,0,13,5.8,13,13v0C100,57.2,94.2,63,87,63z"/>
</svg>
