<?xml version="1.0" encoding="utf-8"?>
<!-- Generator: Adobe Illustrator 21.0.2, SVG Export Plug-In . SVG Version: 6.00 Build 0)  -->
<svg version="1.1" id="Layer_1" xmlns="http://www.w3.org/2000/svg" xmlns:xlink="http://www.w3.org/1999/xlink" x="0px" y="0px"
	 viewBox="0 0 100 100" style="enable-background:new 0 0 100 100;" xml:space="preserve">
<style type="text/css">
	.st0{fill:#5757FF;}
</style>
<g>
	<g>
		<path class="st0" d="M71,83.9L16.2,29c-3.5-3.5-3.5-9.3,0-12.9l0,0c3.5-3.5,9.3-3.5,12.9,0l54.8,54.8c3.5,3.5,3.5,9.3,0,12.9l0,0
			C80.4,87.4,74.6,87.4,71,83.9z"/>
	</g>
</g>
<g>
	<path class="st0" d="M16.1,71L71,16.2c3.5-3.5,9.3-3.5,12.9,0l0,0c3.5,3.5,3.5,9.3,0,12.9L29.1,83.8c-3.5,3.5-9.3,3.5-12.9,0l0,0
		C12.6,80.4,12.6,74.6,16.1,71z"/>
</g>
</svg>
