<?xml version="1.0" encoding="utf-8"?>
<!-- Generator: Adobe Illustrator 21.0.2, SVG Export Plug-In . SVG Version: 6.00 Build 0)  -->
<svg version="1.1" id="Layer_1" xmlns="http://www.w3.org/2000/svg" xmlns:xlink="http://www.w3.org/1999/xlink" x="0px" y="0px"
	 viewBox="0 0 100 100" style="enable-background:new 0 0 100 100;" xml:space="preserve">
<style type="text/css">
	.st0{fill:#FFFFFF;}
</style>
<g>
	<g>
		<path class="st0" d="M88.8,40.2H11.2c-5,0-9.1-4.1-9.1-9.1l0,0c0-5,4.1-9.1,9.1-9.1h77.5c5,0,9.1,4.1,9.1,9.1l0,0
			C97.9,36.1,93.8,40.2,88.8,40.2z"/>
	</g>
	<g>
		<path class="st0" d="M88.8,78H35.4c-5,0-9.1-4.1-9.1-9.1l0,0c0-5,4.1-9.1,9.1-9.1h53.4c5,0,9.1,4.1,9.1,9.1l0,0
			C97.9,73.9,93.8,78,88.8,78z"/>
	</g>
</g>
</svg>
