<?xml version="1.0" encoding="utf-8"?>
<!-- Generator: Adobe Illustrator 21.0.2, SVG Export Plug-In . SVG Version: 6.00 Build 0)  -->
<svg version="1.1" id="Layer_1" xmlns="http://www.w3.org/2000/svg" xmlns:xlink="http://www.w3.org/1999/xlink" x="0px" y="0px"
	 viewBox="0 0 298 74.4" style="enable-background:new 0 0 298 74.4;" xml:space="preserve">
<style type="text/css">
	.st0{fill:#4B00F6;}
	.st1{enable-background:new    ;}
	.st2{fill:none;stroke:#4B00F6;stroke-width:1.8703;stroke-miterlimit:10;}
	.st3{fill:#333333;}
	.st4{font-family:'Avenir-Black';}
	.st5{font-size:28.0545px;}
	.st6{font-family:'Avenir-Medium';}
	.st7{font-size:18.703px;}
	.st8{fill:none;stroke:#333333;stroke-width:1.8703;stroke-miterlimit:10;}
</style>
<g>
	<g>
		<path class="st0" d="M-285.9,26c-5.2,0-9.4-4.2-9.4-9.4h-5.9h-4.5h-5.9v40.7h10.4V42.1c1.3-1,2.6-1.7,4.1-2.2
			c-0.8,1-1.2,2.2-1.2,3.5c0,3.2,2.6,5.8,5.8,5.8s5.8-2.6,5.8-5.8c0-3.1-2.4-5.7-5.5-5.8l0,0c-3.3-0.1-6.5,0.8-9.1,2.5v-11
			c3.6,4.4,9.2,7.3,15.3,7.3h0.8V26H-285.9z"/>
		<g>
			<path class="st0" d="M-301.1,72c-19.1,0-34.6-15.5-34.6-34.6s15.5-34.6,34.6-34.6s34.6,15.5,34.6,34.6S-282,72-301.1,72z
				 M-301.1,10.7c-14.7,0-26.7,12-26.7,26.7s12,26.7,26.7,26.7s26.7-12,26.7-26.7S-286.4,10.7-301.1,10.7z"/>
		</g>
	</g>
	<text transform="matrix(1 0 0 1 -228.9307 35.0962)" class="st0 st4 st5">Will Flourance</text>
	<text transform="matrix(1 0 0 1 -227.0605 54.7344)" class="st0 st6 st7">Designer &amp; Developer</text>
	<line class="st2" x1="-247.8" y1="2.4" x2="-247.8" y2="69.7"/>
</g>
<g>
	<g>
		<path class="st3" d="M50.1,26c-5.2,0-9.4-4.2-9.4-9.4h-5.9h-4.5h-5.9v40.7h10.4V42.1c1.3-1,2.6-1.7,4.1-2.2
			c-0.8,1-1.2,2.2-1.2,3.5c0,3.2,2.6,5.8,5.8,5.8s5.8-2.6,5.8-5.8c0-3.1-2.4-5.7-5.5-5.8l0,0c-3.3-0.1-6.5,0.8-9.1,2.5v-11
			c3.6,4.4,9.2,7.3,15.3,7.3h0.8V26H50.1z"/>
		<g>
			<path class="st3" d="M34.9,72C15.8,72,0.3,56.5,0.3,37.4S15.8,2.8,34.9,2.8s34.6,15.5,34.6,34.6S54,72,34.9,72z M34.9,10.7
				c-14.7,0-26.7,12-26.7,26.7s12,26.7,26.7,26.7s26.7-12,26.7-26.7S49.6,10.7,34.9,10.7z"/>
		</g>
	</g>
	<text transform="matrix(1 0 0 1 107.0693 35.0962)" class="st3 st4 st5">Will Flourance</text>
	<text transform="matrix(1 0 0 1 108.9395 54.7344)" class="st3 st6 st7">Designer &amp; Developer</text>
	<line class="st8" x1="88.2" y1="2.4" x2="88.2" y2="69.7"/>
</g>
</svg>
